<svg width="24" height="24" viewBox="0 0 24 24" fill="none" xmlns="http://www.w3.org/2000/svg">
<path d="M12 2C6.486 2 2 6.486 2 12C2 17.514 6.486 22 12 22C17.514 22 22 17.514 22 12C22 6.486 17.514 2 12 2ZM11.0605 15.3535C10.4752 15.9388 9.52631 15.9393 8.94034 15.3546L6.99545 13.4139C6.6047 13.024 6.60391 12.3912 6.99369 12.0003C7.38371 11.6092 8.01701 11.6085 8.40793 11.9987L9.64545 13.2341C9.84076 13.429 10.1571 13.4289 10.3522 13.2338L14.586 9C14.9765 8.60953 15.6095 8.60953 16 9C16.3905 9.39046 16.3905 10.0235 16 10.414L11.0605 15.3535Z" fill="#29A81E"/>
</svg>
