<svg width="25" height="24" viewBox="0 0 25 24" fill="none" xmlns="http://www.w3.org/2000/svg">
<path d="M12.5 1C10.3244 1 8.19767 1.64514 6.38873 2.85383C4.57979 4.06253 3.16989 5.78049 2.33733 7.79048C1.50477 9.80047 1.28693 12.0122 1.71137 14.146C2.1358 16.2798 3.18345 18.2398 4.72183 19.7782C6.26021 21.3166 8.22022 22.3642 10.354 22.7886C12.4878 23.2131 14.6995 22.9952 16.7095 22.1627C18.7195 21.3301 20.4375 19.9202 21.6462 18.1113C22.8549 16.3023 23.5 14.1756 23.5 12C23.5 9.08262 22.3411 6.28473 20.2782 4.22183C18.2153 2.15893 15.4174 1 12.5 1ZM6.01001 7.86487H7.27211C7.33653 7.86487 7.39928 7.8444 7.45131 7.80642C7.50334 7.76843 7.54195 7.71491 7.56158 7.65355L7.95237 6.45368C7.97276 6.39306 8.01166 6.34036 8.0636 6.30302C8.11554 6.26569 8.17789 6.24561 8.24185 6.24561C8.30581 6.24561 8.36816 6.26569 8.4201 6.30302C8.47203 6.34036 8.51094 6.39306 8.53132 6.45368L8.92356 7.65789C8.94319 7.71925 8.98181 7.77278 9.03384 7.81076C9.08586 7.84874 9.14861 7.86921 9.21303 7.86921H10.4737C10.5379 7.86951 10.6004 7.89005 10.6523 7.92791C10.7042 7.96576 10.7428 8.01902 10.7627 8.08009C10.7825 8.14116 10.7827 8.20694 10.763 8.26809C10.7433 8.32923 10.7049 8.38262 10.6532 8.42066L9.64001 9.16316C9.58771 9.20101 9.54876 9.25445 9.52873 9.31582C9.50871 9.37719 9.50865 9.44333 9.52856 9.50474L9.91356 10.6974C9.93365 10.7588 9.93375 10.825 9.91384 10.8864C9.89393 10.9479 9.85503 11.0015 9.80275 11.0395C9.75047 11.0774 9.68749 11.0978 9.62287 11.0977C9.55826 11.0976 9.49534 11.0771 9.44316 11.0389L8.42277 10.2964C8.37012 10.2591 8.30715 10.239 8.24257 10.239C8.178 10.239 8.11502 10.2591 8.06237 10.2964L7.04198 11.0389C6.98997 11.0795 6.92621 11.1022 6.86025 11.1035C6.79429 11.1049 6.72966 11.0848 6.67605 11.0464C6.62244 11.0079 6.58273 10.9531 6.56285 10.8902C6.54297 10.8273 6.54401 10.7596 6.56579 10.6974L6.95658 9.4975C6.9769 9.43751 6.97807 9.37269 6.95991 9.31201C6.94176 9.25133 6.90519 9.19779 6.85527 9.15882L5.84211 8.41632C5.7902 8.37936 5.75121 8.32702 5.73067 8.2667C5.71012 8.20638 5.70905 8.14113 5.72761 8.08017C5.74617 8.01921 5.78342 7.96563 5.8341 7.92699C5.88477 7.88836 5.94631 7.86662 6.01001 7.86487ZM18.6933 14.805C18.2316 17.4407 15.6336 19.2687 12.5 19.2687C9.36645 19.2687 6.76698 17.4407 6.30527 14.805C6.30077 14.7782 6.29835 14.7511 6.29803 14.7239C6.29803 14.3433 6.75974 14.0972 7.16645 14.2362C8.72961 14.7761 10.5547 15.0511 12.5029 15.0511C14.4511 15.0511 16.2733 14.7761 17.8379 14.2362C18.2417 14.0914 18.7063 14.3418 18.7063 14.7239C18.7041 14.7513 18.6997 14.7784 18.6933 14.805ZM19.168 8.41632L18.1549 9.15882C18.1026 9.19666 18.0636 9.25011 18.0436 9.31148C18.0236 9.37285 18.0235 9.43899 18.0434 9.50039L18.4342 10.6974C18.4543 10.7588 18.4544 10.825 18.4345 10.8864C18.4146 10.9479 18.3757 11.0015 18.3234 11.0395C18.2711 11.0774 18.2081 11.0978 18.1435 11.0977C18.0789 11.0976 18.016 11.0771 17.9638 11.0389L16.9507 10.2964C16.8983 10.259 16.8356 10.2388 16.7712 10.2388C16.7068 10.2388 16.6441 10.259 16.5917 10.2964L15.5699 11.0389C15.5182 11.083 15.4534 11.1086 15.3856 11.1117C15.3178 11.1148 15.2508 11.0952 15.1954 11.0561C15.14 11.0169 15.0991 10.9604 15.0794 10.8954C15.0597 10.8304 15.0622 10.7608 15.0865 10.6974L15.4758 9.4975C15.4957 9.43609 15.4956 9.36996 15.4756 9.30859C15.4556 9.24722 15.4166 9.19377 15.3643 9.15592L14.344 8.41342C14.2932 8.37487 14.2558 8.3214 14.237 8.26052C14.2181 8.19964 14.2188 8.13438 14.2389 8.07391C14.259 8.01343 14.2975 7.96076 14.3491 7.92328C14.4006 7.88579 14.4626 7.86537 14.5263 7.86487H15.7855C15.8498 7.86421 15.9122 7.84348 15.9641 7.8056C16.016 7.76771 16.0548 7.71455 16.075 7.65355L16.4643 6.45368C16.4847 6.39306 16.5236 6.34036 16.5756 6.30302C16.6275 6.26569 16.6899 6.24561 16.7538 6.24561C16.8178 6.24561 16.8801 6.26569 16.9321 6.30302C16.984 6.34036 17.0229 6.39306 17.0433 6.45368L17.4341 7.65355C17.4537 7.71491 17.4923 7.76843 17.5444 7.80642C17.5964 7.8444 17.6591 7.86487 17.7236 7.86487H18.9857C19.0506 7.86358 19.1142 7.88313 19.1672 7.92064C19.2203 7.95815 19.2599 8.01166 19.2803 8.07332C19.3007 8.13498 19.3008 8.20155 19.2806 8.26328C19.2604 8.325 19.2209 8.37864 19.168 8.41632Z" fill="white"/>
</svg>
