<svg width="4" height="3" viewBox="0 0 4 3" fill="none" xmlns="http://www.w3.org/2000/svg">
<path fill-rule="evenodd" clip-rule="evenodd" d="M1.74295 2.88453L2.81398 1.78755L3.88501 0.690564C4.03833 0.533522 4.03833 0.279484 3.88501 0.117824C3.81061 0.042344 3.71013 0 3.60541 0C3.5007 0 3.40021 0.042344 3.32582 0.117824L1.46336 2.02542L0.674183 1.21712C0.599787 1.14164 0.499305 1.09929 0.394588 1.09929C0.289872 1.09929 0.18939 1.14164 0.114994 1.21712C-0.0383315 1.37416 -0.0383315 1.62819 0.114994 1.78985L1.18828 2.88453C1.26494 2.96305 1.36415 3 1.46336 3C1.56708 3 1.66629 2.96305 1.74295 2.88453Z" fill="white"/>
</svg>
