<svg width="72" height="40" viewBox="0 0 72 40" fill="none" xmlns="http://www.w3.org/2000/svg">
<path d="M16.0198 2.34475C20.1109 0.690693 24.7568 0.568816 28.9346 1.94429C30.9281 2.60591 32.783 3.59834 34.4819 4.85194C33.1471 6.10554 31.9856 7.51584 30.9455 9.0306C28.7959 7.41137 26.1263 6.50599 23.422 6.43635C20.4923 6.33188 17.528 7.23726 15.153 8.96096C12.5527 10.8414 10.6632 13.6619 9.90042 16.7611C9.15501 19.7732 9.41504 23.0465 10.6978 25.8671C11.946 28.6529 14.1649 30.986 16.8866 32.3789C19.2615 33.5976 22.0005 34.0677 24.6528 33.7543C27.8945 33.3713 30.9802 31.7521 33.1471 29.3145C35.8687 26.3024 37.1862 22.0019 36.4408 17.9973C36.3714 17.4924 36.1807 16.9875 36.3368 16.5C36.9955 14.428 38.1743 12.5302 39.7345 11.0155C41.9187 15.1071 42.5775 20.017 41.5027 24.5439C40.3239 29.6976 36.8742 34.2767 32.2803 36.8361C29.0733 38.6643 25.3288 39.5 21.6711 39.2388C17.9093 38.9777 14.2516 37.5499 11.2872 35.1995C7.99354 32.5878 5.5666 28.8792 4.56115 24.7876C3.43436 20.2956 4.02376 15.4031 6.156 11.294C8.25357 7.27208 11.8073 4.03362 16.0198 2.34475ZM36.3541 5.06087C39.9252 2.22287 44.5364 0.760338 49.0609 1.03892C53.7587 1.26526 58.3526 3.372 61.6116 6.76716C65.0787 10.319 67.0549 15.2638 67.0029 20.2433C67.0376 26.3198 63.9346 32.3092 58.9767 35.774C54.0361 39.3433 47.3447 40.2313 41.6067 38.1942C39.7691 37.5499 38.053 36.5923 36.5274 35.4084C37.8623 34.1722 39.0931 32.8141 40.0465 31.2471C42.2134 32.8315 44.8311 33.7717 47.5007 33.8414C50.5517 33.9633 53.6547 33.0057 56.099 31.1775C58.5433 29.3667 60.3808 26.7028 61.1609 23.743C62.0277 20.5045 61.6636 16.9701 60.1728 13.9753C58.8727 11.3637 56.7057 9.1873 54.1054 7.88147C51.7132 6.66269 48.9395 6.19259 46.2699 6.54082C43.3576 6.90645 40.6012 8.29933 38.521 10.3713C36.2501 12.6173 34.8113 15.6642 34.5166 18.8505C34.3605 20.3652 34.5165 21.8974 34.7246 23.3947C34.3259 25.693 32.939 27.7301 31.2402 29.2797C29.368 25.7975 28.6052 21.7407 29.1079 17.8058C29.7493 12.8088 32.4016 8.12522 36.3541 5.06087Z" fill="white"/>
</svg>
