<svg width="67" height="68" viewBox="0 0 67 68" fill="none" xmlns="http://www.w3.org/2000/svg">
<path d="M33.5001 0.666672C15.1201 0.666672 0.166748 15.62 0.166748 34C0.166748 52.38 15.1201 67.3333 33.5001 67.3333C51.8801 67.3333 66.8334 52.38 66.8334 34C66.8334 15.62 51.8801 0.666672 33.5001 0.666672ZM27.8963 47.6505C27.3109 48.2358 26.3621 48.2363 25.7761 47.6516L15.8753 37.7722C15.0936 36.9922 15.0921 35.7262 15.8718 34.9443L17.7538 33.057C18.534 32.2745 19.8009 32.2731 20.583 33.0538L26.4765 38.9371C26.6718 39.132 26.9882 39.1319 27.1833 38.9368L43.0625 23.0576C43.8436 22.2765 45.1099 22.2765 45.891 23.0576L47.7759 24.9425C48.5569 25.7235 48.5569 26.9898 47.7759 27.7709L27.8963 47.6505Z" fill="#AC1991"/>
</svg>
