<svg width="24" height="24" viewBox="0 0 24 24" fill="none" xmlns="http://www.w3.org/2000/svg">
<g clip-path="url(#clip0_7591_94817)">
<path d="M19.6832 18.1944L19.5163 17.2677C19.4694 17.007 19.2211 16.833 18.96 16.8777C17.4974 17.1277 14.934 17.2936 12.0084 17.2936C9.04533 17.2936 6.4538 17.1233 4.99985 16.8683C4.87084 16.8457 4.73815 16.8765 4.63224 16.9537C4.52633 17.0308 4.45613 17.1477 4.43812 17.2774L4.31316 18.1784C4.29507 18.309 4.33117 18.4413 4.41309 18.5446C4.49502 18.6479 4.61567 18.7131 4.747 18.7253C5.92243 18.8345 7.33008 19.4573 8.59365 20.5301C9.72262 21.4861 10.5196 22.6128 10.8917 23.6557C10.9653 23.862 11.1608 24 11.3798 24H12.9101C13.1291 24 13.3243 23.8624 13.3981 23.6561C13.7711 22.6131 14.568 21.4862 15.6959 20.5301C16.8685 19.5364 18.1626 18.9283 19.2811 18.757C19.4098 18.7373 19.5251 18.6664 19.6008 18.5605C19.6764 18.4546 19.7063 18.3225 19.6832 18.1944Z" fill="white"/>
<path d="M8.0723 12.2105C9.16199 12.2105 10.1314 11.792 10.7517 11.2995C10.9674 11.1282 11.2349 11.0346 11.5103 11.0346H12.5056C12.7817 11.0346 13.048 11.1278 13.2642 11.2995C13.8844 11.792 14.8535 12.2104 15.9432 12.2104C17.8148 12.2104 19.333 10.7631 19.333 8.97892C19.333 7.96176 19.0865 6.88745 18.7175 6.15175C17.809 4.34071 17.0528 2.38965 16.5091 0.437798L16.509 0.437161C16.4204 0.119197 16.0907 -0.0667209 15.7729 0.021815C15.4549 0.110351 15.2689 0.43995 15.3575 0.757914L16.3217 4.2191C16.516 4.91655 16.2461 5.65974 15.6499 6.07055C14.5193 6.84976 13.4089 8.04742 12.8775 9.11041C12.7827 9.30015 12.5884 9.42041 12.3762 9.42041H11.6397C11.4275 9.42041 11.2334 9.30031 11.1385 9.11041C10.6069 8.04734 9.49613 6.84952 8.36516 6.07031C7.76932 5.65982 7.49901 4.91567 7.69314 4.2187L8.65715 0.757994C8.74576 0.44003 8.55977 0.110431 8.2418 0.0218947C7.92344 -0.0666412 7.59424 0.119356 7.5057 0.43724C6.95616 2.41005 6.21528 4.32111 5.29709 6.15151C4.92804 6.88713 4.68164 7.9616 4.68164 8.97892C4.68164 10.7632 6.19998 12.2105 8.0723 12.2105Z" fill="white"/>
</g>
<defs>
<clipPath id="clip0_7591_94817">
<rect width="24" height="24" fill="white"/>
</clipPath>
</defs>
</svg>
